# xmcd
#
# Track frame offsets:
# 150
# 16432
# 34682
# 51012
# 73207
# 88292
# 105617
# 122937
# 139807
# 157585
#
# Disc length: 2351 seconds
#
#
# Revision: 0
# Processed by: cddbd v1.5.2PL0 Copyright (c) Steve Scherf et al.
# Submitted via: FreeRIP 2.945 
#
DISCID=85092d0a
DTITLE=julio iglesias - momentos
DYEAR=1900
DGENRE=Revival
TTITLE0=momentos
TTITLE1=quijote
TTITLE2=abraça-me
TTITLE3=paloma
TTITLE4=amor
TTITLE5=no me vuelvo a enamorar
TTITLE6=grande, grande, grande
TTITLE7=con la misma piedra
TTITLE8=nathalie
TTITLE9=lembranças de Ypacaraí
EXTD=
EXTT0=
EXTT1=
EXTT2=
EXTT3=
EXTT4=
EXTT5=
EXTT6=
EXTT7=
EXTT8=
EXTT9=
PLAYORDER=
